HIERARCHY
ROOT Hips
{
	OFFSET 0.000000 0.000000 0.000000
	CHANNELS 6 Xposition Yposition Zposition Zrotation Yrotation Xrotation 
	JOINT LHipJoint
	{
		OFFSET 0.000000 0.000000 0.000000
		CHANNELS 3 Zrotation Yrotation Xrotation
		JOINT LeftUpLeg
		{
			OFFSET 8.178360 -10.767780 5.035740
			CHANNELS 3 Zrotation Yrotation Xrotation
			JOINT LeftLeg
			{
				OFFSET 14.688660 -40.356780 0.000000
				CHANNELS 3 Zrotation Yrotation Xrotation
				JOINT LeftFoot
				{
					OFFSET 15.373200 -42.237540 0.000000
					CHANNELS 3 Zrotation Yrotation Xrotation
					JOINT LeftToeBase
					{
						OFFSET 0.945840 -2.598660 13.935300
						CHANNELS 3 Zrotation Yrotation Xrotation
						End Site
						{
							OFFSET 0.000000 0.000000 0.000000
						}
					}
				}
			}
		}
	}
	JOINT RHipJoint
	{
		OFFSET 0.000000 0.000000 0.000000
		CHANNELS 3 Zrotation Yrotation Xrotation
		JOINT RightUpLeg
		{
			OFFSET -7.833120 -10.767780 5.035740
			CHANNELS 3 Zrotation Yrotation Xrotation
			JOINT RightLeg
			{
				OFFSET -15.255180 -41.913300 0.000000
				CHANNELS 3 Zrotation Yrotation Xrotation
				JOINT RightFoot
				{
					OFFSET -15.409560 -42.337380 0.000000
					CHANNELS 3 Zrotation Yrotation Xrotation
					JOINT RightToeBase
					{
						OFFSET -0.988380 -2.715540 14.178900
						CHANNELS 3 Zrotation Yrotation Xrotation
						End Site
						{
							OFFSET 0.000000 0.000000 0.000000
						}
					}
				}
			}
		}
	}
	JOINT LowerBack
	{
		OFFSET 0.000000 0.000000 0.000000
		CHANNELS 3 Zrotation Yrotation Xrotation
		JOINT Spine
		{
			OFFSET 0.169620 12.213540 -1.160280
			CHANNELS 3 Zrotation Yrotation Xrotation
			JOINT Spine1
			{
				OFFSET 0.340320 12.293100 -0.256500
				CHANNELS 3 Zrotation Yrotation Xrotation
				JOINT Neck
				{
					OFFSET 0.000000 0.000000 0.000000
					CHANNELS 3 Zrotation Yrotation Xrotation
					JOINT Neck1
					{
						OFFSET -0.325020 10.477440 1.032120
						CHANNELS 3 Zrotation Yrotation Xrotation
						JOINT Head
						{
							OFFSET 0.624420 10.568160 -0.743820
							CHANNELS 3 Zrotation Yrotation Xrotation
							End Site
							{
								OFFSET 0.000000 0.000000 0.000000
							}
						}
					}
				}
				JOINT LeftShoulder
				{
					OFFSET 0.000000 0.000000 0.000000
					CHANNELS 3 Zrotation Yrotation Xrotation
					JOINT LeftArm
					{
						OFFSET 20.174460 7.205340 -1.867260
						CHANNELS 3 Zrotation Yrotation Xrotation
						JOINT LeftForeArm
						{
							OFFSET 29.898000 -0.000000 -0.000000
							CHANNELS 3 Zrotation Yrotation Xrotation
							JOINT LeftHand
							{
								OFFSET 20.901360 -0.000000 -0.000000
								CHANNELS 3 Zrotation Yrotation Xrotation
								JOINT LeftFingerBase
								{
									OFFSET 0.000000 0.000000 0.000000
									CHANNELS 3 Zrotation Yrotation Xrotation
									JOINT LeftHandIndex1
									{
										OFFSET 4.291560 -0.000000 -0.000000
										CHANNELS 3 Zrotation Yrotation Xrotation
										End Site
										{
											OFFSET 0.000000 0.000000 0.000000
										}
									}
								}
								JOINT LThumb
								{
									OFFSET 0.000000 0.000000 0.000000
									CHANNELS 3 Zrotation Yrotation Xrotation
									End Site
									{
										OFFSET 0.000000 0.000000 0.000000
									}
								}
							}
						}
					}
				}
				JOINT RightShoulder
				{
					OFFSET 0.000000 0.000000 0.000000
					CHANNELS 3 Zrotation Yrotation Xrotation
					JOINT RightArm
					{
						OFFSET -18.819600 8.244300 -2.427900
						CHANNELS 3 Zrotation Yrotation Xrotation
						JOINT RightForeArm
						{
							OFFSET -31.451400 -0.000000 -0.000000
							CHANNELS 3 Zrotation Yrotation Xrotation
							JOINT RightHand
							{
								OFFSET -20.665020 -0.000000 -0.000000
								CHANNELS 3 Zrotation Yrotation Xrotation
								JOINT RightFingerBase
								{
									OFFSET 0.000000 0.000000 0.000000
									CHANNELS 3 Zrotation Yrotation Xrotation
									JOINT RightHandIndex1
									{
										OFFSET -3.735180 -0.000000 -0.000000
										CHANNELS 3 Zrotation Yrotation Xrotation
										End Site
										{
											OFFSET 0.000000 0.000000 0.000000
										}
									}
								}
								JOINT RThumb
								{
									OFFSET 0.000000 0.000000 0.000000
									CHANNELS 3 Zrotation Yrotation Xrotation
									End Site
									{
										OFFSET 0.000000 0.000000 0.000000
									}
								}
							}
						}
					}
				}
			}
		}
	}
}
MOTION
Frames:	6
Frame Time:	0.0333333
73.839066 107.934270 66.685350 8.371007 -67.464960 -4.774345 -3.200256 0.709322 1.249600 -8.317099 -12.520279 -18.182566 2.184956 11.379018 33.884471 0.275066 -1.499465 1.887366 1.447600 -7.605700 -21.522800 1.298405 -1.031435 1.672170 27.413025 4.192255 -2.617916 -0.972178 -6.962515 21.947820 -2.231253 14.364784 2.523525 -2.061100 -8.992300 25.771200 1.572646 1.767597 7.606616 0.866792 2.575844 0.273928 -2.405975 1.269601 -4.673209 -12.257169 -7.877213 -14.588010 7.161030 -9.194311 17.404622 4.200400 -4.707100 13.485400 -6.675024 -0.457010 -1.728706 -81.965374 7.116392 21.851175 13.267130 -19.086205 -2.661296 -1.474235 -2.382487 9.802739 17.295203 22.887073 8.118400 -7.125000 0.000000 0.000000 -12.359100 56.189500 -3.428700 4.894594 1.679930 -1.062902 85.274706 1.661630 32.280541 -24.151059 33.673040 -8.092285 0.384323 -0.063215 0.774647 -15.247109 9.852941 -2.752900 7.125000 0.000000 0.000000 8.082400 -19.763800 4.922100 
72.541512 107.980716 68.182572 8.607811 -71.960978 -4.698782 -3.366159 0.611141 1.085645 -7.438379 -12.938141 -19.155342 1.123991 10.003833 29.074517 -0.157756 1.439287 2.776299 1.909800 -8.675600 -24.785700 1.326590 -1.026401 1.740577 27.281017 3.925892 -0.839323 -0.747247 -6.353584 20.247823 -2.239446 15.173952 3.499358 -2.193500 -9.258000 26.605600 2.223872 1.589884 7.834884 0.896185 2.415828 0.355357 -2.556227 1.181920 -4.591181 -13.211205 -8.280748 -14.743553 7.576370 -9.460625 17.017908 4.529100 -4.866300 13.499100 -6.641863 -0.469273 -1.710316 -81.048774 6.179655 20.268431 13.962640 -20.136028 -2.969955 -1.438589 -2.377950 10.041319 17.211506 23.085509 8.115500 -7.125000 0.000000 0.000000 -12.591700 56.358600 -3.546600 4.848627 1.796780 -1.015649 84.905329 1.771143 30.508957 -23.934818 33.465064 -7.954225 0.386147 -0.082044 0.214777 -15.207815 10.389115 -2.898900 7.125000 0.000000 0.000000 8.100300 -19.193500 5.037300 
71.155896 107.991576 69.755190 8.072912 -75.696258 -4.095421 -3.493207 0.498695 0.917174 -6.759137 -12.833285 -20.176527 0.294023 8.742182 24.886354 -0.537043 3.702422 2.479537 1.682600 -8.171000 -23.234600 1.338374 -1.028360 1.801176 27.069878 3.476141 1.244807 -0.517259 -5.655812 18.298753 -2.268588 16.255356 4.166704 -2.004100 -8.874600 25.404000 3.296645 1.440222 8.193472 0.963409 2.338625 0.609145 -2.933504 1.144605 -4.209738 -13.156788 -8.072849 -14.908279 7.243544 -9.048646 16.372198 4.444600 -4.708000 13.143500 -6.613547 -0.592840 -1.648292 -80.165014 4.302863 18.547506 14.430861 -20.795025 -3.172690 -1.477703 -2.374298 9.042411 18.203839 23.112537 8.625700 -7.125000 0.000000 0.000000 -11.469200 56.586700 -3.287800 4.864038 1.860007 -0.979257 84.348966 2.342282 28.607910 -23.356362 32.839888 -7.584541 0.430661 -0.057429 -0.524688 -16.332839 9.613621 -2.892400 7.125000 0.000000 0.000000 7.281300 -19.943600 4.396300 
69.496404 108.053712 71.073852 7.099716 -79.309050 -2.644432 -3.512176 0.281111 0.774684 -6.476660 -10.861284 -22.083898 -0.395362 7.471259 20.930563 -0.238308 2.443558 3.480051 1.260800 -7.117700 -20.064700 1.341308 -1.017698 1.847741 26.815541 4.403656 3.159773 -0.335119 -5.080875 16.743449 -2.239139 17.257464 5.648351 -2.248600 -9.365700 26.946200 3.619924 1.317678 8.203115 1.118634 2.198535 0.627782 -2.670898 1.082747 -4.134318 -12.999608 -7.589483 -15.098914 7.040890 -8.339586 16.123424 4.443400 -4.407600 12.945900 -6.544944 -0.687997 -1.619528 -79.358341 3.060465 16.182448 14.969674 -21.587178 -3.420145 -1.491889 -2.403734 7.554464 19.142101 23.279984 9.163200 -7.125000 0.000000 0.000000 -10.478400 56.964000 -3.095100 4.901311 1.901049 -0.975475 83.654486 2.313595 26.512937 -22.477378 31.864304 -7.047921 0.462897 -0.064532 -1.245960 -17.051184 9.661813 -3.048200 7.125000 0.000000 0.000000 6.746400 -19.836600 4.085000 
67.727736 108.046470 72.356928 8.808322 -81.749943 -4.188335 -3.634122 0.155733 0.683725 -7.069695 -10.085395 -22.980335 -0.961377 6.171547 17.203900 0.275552 -0.136051 3.651013 2.899800 -10.531100 -30.714300 1.364316 -1.007247 1.899112 25.874657 4.550906 4.780416 -0.248684 -4.746156 15.852639 -2.235895 18.481127 6.564746 -2.107000 -9.085500 26.063300 3.274112 1.175080 8.497705 1.192278 1.965054 0.709548 -2.191064 0.983038 -4.091055 -12.718383 -7.664669 -15.933082 6.567570 -8.415946 16.486721 4.158700 -4.450800 13.262600 -6.499262 -0.799674 -1.586634 -78.675322 1.622556 13.743210 15.477693 -22.297208 -3.659232 -1.406651 -2.465200 7.532478 18.230696 24.070890 8.941200 -7.125000 0.000000 0.000000 -11.973800 57.597200 -3.728800 4.945494 1.942687 -0.975512 82.900384 2.219597 22.901529 -21.353440 30.576343 -6.387407 0.477930 -0.075968 -0.279462 -17.469114 9.258657 -3.001400 7.125000 0.000000 0.000000 6.438700 -20.225600 3.839700 
65.557308 107.960814 73.641810 5.246064 -83.187390 -1.065265 -3.752212 0.068912 0.664628 -7.564953 -9.228645 -23.427498 -1.197689 5.491118 15.317567 0.841961 -3.333947 3.369363 2.865600 -10.474200 -30.526300 1.257101 -1.049841 1.937920 25.828741 3.735886 7.078134 -0.140050 -4.263139 14.576970 -2.174241 19.305869 7.817680 -2.113900 -9.099400 26.106700 3.658366 0.718793 8.803105 1.441240 1.411360 0.844351 -1.742809 0.695101 -3.993740 -13.072843 -7.407761 -16.008260 6.942970 -7.976569 16.572460 4.465400 -4.262200 13.295700 -6.446866 -0.818229 -1.565771 -77.885119 0.917465 13.761192 15.980692 -23.021703 -3.921173 -1.431720 -2.434383 5.136548 19.822549 23.207912 9.480200 -7.125000 0.000000 0.000000 -9.658100 57.015100 -2.861500 4.987207 1.986393 -0.952488 81.480218 1.496170 20.915258 -20.088055 29.081280 -5.682582 0.503891 -0.056499 -0.755119 -17.830942 8.369096 -2.775300 7.125000 0.000000 0.000000 6.166400 -21.146700 3.546800 
